<?xml version="1.0" standalone="no"?><!DOCTYPE svg PUBLIC "-//W3C//DTD SVG 1.1//EN" "http://www.w3.org/Graphics/SVG/1.1/DTD/svg11.dtd"><svg t="1686801204774" class="icon" viewBox="0 0 1024 1024" version="1.1" xmlns="http://www.w3.org/2000/svg" p-id="4124" xmlns:xlink="http://www.w3.org/1999/xlink" width="200" height="200"><path d="M938.666667 627.285333v59.050667c0 9.813333-0.426667 19.669333-1.28 29.44-11.946667 134.826667-105.6 222.890667-240.682667 222.890667H327.253333c-68.394667 0-126.122667-22.186667-167.594666-62.464a195.968 195.968 0 0 1-40.576-52.565334c14.08-17.152 29.866667-35.925333 45.312-54.741333a4205.226667 4205.226667 0 0 0 67.114666-82.133333c23.466667-29.098667 85.504-105.642667 171.434667-69.717334 17.493333 7.253333 32.896 17.493333 47.018667 26.496 34.645333 23.125333 49.152 29.952 73.514666 16.682667 26.965333-14.506667 44.501333-43.178667 62.848-73.130667 9.813333-15.872 19.669333-31.232 30.378667-45.354666 46.592-60.714667 118.4-76.970667 178.261333-41.045334 29.952 17.92 55.594667 40.618667 79.530667 63.701334 5.12 5.12 10.24 9.856 14.933333 14.549333 6.4 6.4 27.818667 27.818667 49.194667 48.341333z" fill="#200E32" p-id="4125"></path><path d="M697.130667 85.333333H327.253333C182.4 85.333333 85.333333 186.709333 85.333333 337.664v348.672c0 52.565333 11.946667 99.242667 33.792 137.301333 14.08-17.152 29.909333-35.925333 45.312-54.784a4095.189333 4095.189333 0 0 0 67.114667-82.090666c23.509333-29.098667 85.504-105.642667 171.434667-69.717334 17.493333 7.253333 32.896 17.493333 47.018666 26.496 34.645333 23.125333 49.152 29.952 73.514667 16.64 26.965333-14.506667 44.501333-43.136 62.848-73.130666 9.813333-15.786667 19.669333-31.146667 30.378667-45.312 46.592-60.714667 118.4-76.970667 178.261333-41.045334 29.952 17.92 55.594667 40.618667 79.530667 63.701334 5.12 5.12 10.24 9.856 14.933333 14.592 6.442667 6.357333 27.818667 27.733333 49.194667 48.341333V337.664C938.666667 186.709333 841.642667 85.333333 697.130667 85.333333z" fill="#200E32" opacity=".4" p-id="4126"></path><path d="M488.704 375.338667a111.104 111.104 0 0 1-110.08 110.122666c-60.074667 0-110.08-50.048-110.08-110.122666s50.005333-110.165333 110.08-110.165334c60.032 0 110.08 50.090667 110.08 110.165334z" fill="#200E32" p-id="4127"></path></svg>